<mxfile host="app.diagrams.net" modified="2023-11-05T13:54:50.521Z" agent="Mozilla/5.0 (Windows NT 10.0; Win64; x64) AppleWebKit/537.36 (KHTML, like Gecko) Chrome/118.0.0.0 Safari/537.36" etag="HBN7ezc7YVxpP8svbt3P" version="22.0.8" type="device">
  <diagram name="Pagina-1" id="KD0p71NW7KmdiMC_3tap">
    <mxGraphModel dx="2868" dy="1682" grid="1" gridSize="10" guides="1" tooltips="1" connect="1" arrows="1" fold="1" page="1" pageScale="1" pageWidth="827" pageHeight="1169" math="0" shadow="0">
      <root>
        <mxCell id="0" />
        <mxCell id="1" parent="0" />
        <mxCell id="zukYgAwYILHTxyN00kDu-1" value="&lt;h1 style=&quot;line-height: 0%;&quot;&gt;Online Social Network&lt;/h1&gt;" style="rounded=0;whiteSpace=wrap;html=1;fillColor=none;labelPosition=center;verticalLabelPosition=middle;align=center;verticalAlign=top;horizontal=1;labelBackgroundColor=none;strokeWidth=2;" vertex="1" parent="1">
          <mxGeometry x="441" y="159" width="800" height="773" as="geometry" />
        </mxCell>
        <mxCell id="zukYgAwYILHTxyN00kDu-37" value="&lt;h1 style=&quot;line-height: 0%;&quot;&gt;Ethereum Blockchain&lt;/h1&gt;" style="rounded=0;whiteSpace=wrap;html=1;fillColor=none;labelPosition=center;verticalLabelPosition=middle;align=center;verticalAlign=top;horizontal=1;labelBackgroundColor=none;strokeWidth=2;" vertex="1" parent="1">
          <mxGeometry x="360" y="80" width="960" height="1920" as="geometry" />
        </mxCell>
        <mxCell id="zukYgAwYILHTxyN00kDu-3" value="&lt;h1 style=&quot;line-height: 0%;&quot;&gt;Ethereum Blockchain&lt;/h1&gt;" style="rounded=0;whiteSpace=wrap;html=1;fillColor=none;labelPosition=center;verticalLabelPosition=middle;align=center;verticalAlign=top;horizontal=1;labelBackgroundColor=none;strokeWidth=2;" vertex="1" parent="1">
          <mxGeometry x="441" y="1002" width="800" height="918" as="geometry" />
        </mxCell>
        <mxCell id="zukYgAwYILHTxyN00kDu-9" style="rounded=0;orthogonalLoop=1;jettySize=auto;html=1;exitX=1;exitY=0.3333333333333333;exitDx=0;exitDy=0;exitPerimeter=0;entryX=0;entryY=0.5;entryDx=0;entryDy=0;strokeWidth=2;endArrow=none;endFill=0;" edge="1" parent="1" source="zukYgAwYILHTxyN00kDu-4" target="zukYgAwYILHTxyN00kDu-8">
          <mxGeometry relative="1" as="geometry" />
        </mxCell>
        <mxCell id="zukYgAwYILHTxyN00kDu-27" style="rounded=0;orthogonalLoop=1;jettySize=auto;html=1;exitX=1;exitY=0.3333333333333333;exitDx=0;exitDy=0;exitPerimeter=0;strokeWidth=2;endArrow=none;endFill=0;entryX=0;entryY=0.5;entryDx=0;entryDy=0;" edge="1" parent="1" source="zukYgAwYILHTxyN00kDu-4" target="zukYgAwYILHTxyN00kDu-25">
          <mxGeometry relative="1" as="geometry" />
        </mxCell>
        <mxCell id="zukYgAwYILHTxyN00kDu-34" style="rounded=0;orthogonalLoop=1;jettySize=auto;html=1;exitX=1;exitY=0.3333333333333333;exitDx=0;exitDy=0;exitPerimeter=0;entryX=0;entryY=0.5;entryDx=0;entryDy=0;endArrow=none;endFill=0;strokeWidth=2;" edge="1" parent="1" source="zukYgAwYILHTxyN00kDu-4" target="zukYgAwYILHTxyN00kDu-28">
          <mxGeometry relative="1" as="geometry" />
        </mxCell>
        <mxCell id="zukYgAwYILHTxyN00kDu-47" style="rounded=0;orthogonalLoop=1;jettySize=auto;html=1;exitX=1;exitY=0.3333333333333333;exitDx=0;exitDy=0;exitPerimeter=0;entryX=0;entryY=0;entryDx=0;entryDy=0;strokeWidth=2;endArrow=none;endFill=0;" edge="1" parent="1" source="zukYgAwYILHTxyN00kDu-4" target="zukYgAwYILHTxyN00kDu-46">
          <mxGeometry relative="1" as="geometry" />
        </mxCell>
        <mxCell id="zukYgAwYILHTxyN00kDu-52" style="rounded=0;orthogonalLoop=1;jettySize=auto;html=1;exitX=1;exitY=0.3333333333333333;exitDx=0;exitDy=0;exitPerimeter=0;entryX=0;entryY=0.5;entryDx=0;entryDy=0;strokeWidth=2;endArrow=none;endFill=0;" edge="1" parent="1" source="zukYgAwYILHTxyN00kDu-4" target="zukYgAwYILHTxyN00kDu-51">
          <mxGeometry relative="1" as="geometry" />
        </mxCell>
        <mxCell id="zukYgAwYILHTxyN00kDu-4" value="User" style="shape=umlActor;verticalLabelPosition=bottom;verticalAlign=top;html=1;align=center;strokeWidth=2;fontSize=23;fontStyle=1" vertex="1" parent="1">
          <mxGeometry x="80" y="871" width="130" height="220" as="geometry" />
        </mxCell>
        <mxCell id="zukYgAwYILHTxyN00kDu-17" style="rounded=0;orthogonalLoop=1;jettySize=auto;html=1;exitX=1;exitY=0.5;exitDx=0;exitDy=0;entryX=0;entryY=0.5;entryDx=0;entryDy=0;dashed=1;strokeWidth=4;" edge="1" parent="1" source="zukYgAwYILHTxyN00kDu-8" target="zukYgAwYILHTxyN00kDu-15">
          <mxGeometry relative="1" as="geometry" />
        </mxCell>
        <mxCell id="zukYgAwYILHTxyN00kDu-19" value="&amp;lt;&amp;lt;include&amp;gt;&amp;gt;" style="edgeLabel;html=1;align=center;verticalAlign=middle;resizable=0;points=[];fontSize=22;" vertex="1" connectable="0" parent="zukYgAwYILHTxyN00kDu-17">
          <mxGeometry x="-0.0923" y="-4" relative="1" as="geometry">
            <mxPoint x="18" as="offset" />
          </mxGeometry>
        </mxCell>
        <mxCell id="zukYgAwYILHTxyN00kDu-22" style="rounded=0;orthogonalLoop=1;jettySize=auto;html=1;exitX=1;exitY=0.5;exitDx=0;exitDy=0;entryX=0;entryY=0.5;entryDx=0;entryDy=0;dashed=1;strokeWidth=4;" edge="1" parent="1" source="zukYgAwYILHTxyN00kDu-8" target="zukYgAwYILHTxyN00kDu-14">
          <mxGeometry relative="1" as="geometry" />
        </mxCell>
        <mxCell id="zukYgAwYILHTxyN00kDu-24" value="&amp;lt;&amp;lt;include&amp;gt;&amp;gt;" style="edgeLabel;html=1;align=center;verticalAlign=middle;resizable=0;points=[];fontSize=22;" vertex="1" connectable="0" parent="zukYgAwYILHTxyN00kDu-22">
          <mxGeometry x="0.1985" y="2" relative="1" as="geometry">
            <mxPoint as="offset" />
          </mxGeometry>
        </mxCell>
        <mxCell id="zukYgAwYILHTxyN00kDu-8" value="&lt;font style=&quot;font-size: 22px;&quot;&gt;Asks Trust&lt;/font&gt;" style="ellipse;whiteSpace=wrap;html=1;strokeWidth=2;" vertex="1" parent="1">
          <mxGeometry x="520" y="282" width="280" height="80" as="geometry" />
        </mxCell>
        <mxCell id="zukYgAwYILHTxyN00kDu-14" value="&lt;font style=&quot;font-size: 22px;&quot;&gt;Send ETH Address&lt;/font&gt;" style="ellipse;whiteSpace=wrap;html=1;strokeWidth=2;" vertex="1" parent="1">
          <mxGeometry x="920" y="204" width="280" height="80" as="geometry" />
        </mxCell>
        <mxCell id="zukYgAwYILHTxyN00kDu-15" value="&lt;font style=&quot;font-size: 22px;&quot;&gt;Send minimum signers&lt;/font&gt;" style="ellipse;whiteSpace=wrap;html=1;strokeWidth=2;" vertex="1" parent="1">
          <mxGeometry x="920" y="362" width="280" height="80" as="geometry" />
        </mxCell>
        <mxCell id="zukYgAwYILHTxyN00kDu-25" value="&lt;font style=&quot;font-size: 22px;&quot;&gt;Arrange Random&lt;/font&gt;" style="ellipse;whiteSpace=wrap;html=1;strokeWidth=2;" vertex="1" parent="1">
          <mxGeometry x="520" y="522" width="280" height="80" as="geometry" />
        </mxCell>
        <mxCell id="zukYgAwYILHTxyN00kDu-28" value="&lt;font style=&quot;font-size: 22px;&quot;&gt;Notifies Trust&lt;/font&gt;" style="ellipse;whiteSpace=wrap;html=1;strokeWidth=2;" vertex="1" parent="1">
          <mxGeometry x="520" y="722" width="280" height="80" as="geometry" />
        </mxCell>
        <mxCell id="zukYgAwYILHTxyN00kDu-39" style="rounded=0;orthogonalLoop=1;jettySize=auto;html=1;exitX=0;exitY=0.5;exitDx=0;exitDy=0;strokeWidth=4;entryX=1;entryY=0.5;entryDx=0;entryDy=0;dashed=1;" edge="1" parent="1" source="zukYgAwYILHTxyN00kDu-29" target="zukYgAwYILHTxyN00kDu-28">
          <mxGeometry relative="1" as="geometry" />
        </mxCell>
        <mxCell id="zukYgAwYILHTxyN00kDu-40" value="&amp;lt;&amp;lt;extends&amp;gt;&amp;gt;" style="edgeLabel;html=1;align=center;verticalAlign=middle;resizable=0;points=[];fontSize=22;" vertex="1" connectable="0" parent="zukYgAwYILHTxyN00kDu-39">
          <mxGeometry x="0.0294" y="2" relative="1" as="geometry">
            <mxPoint y="-19" as="offset" />
          </mxGeometry>
        </mxCell>
        <mxCell id="zukYgAwYILHTxyN00kDu-29" value="&lt;font style=&quot;font-size: 22px;&quot;&gt;Reasks Trust&lt;/font&gt;" style="ellipse;whiteSpace=wrap;html=1;strokeWidth=2;" vertex="1" parent="1">
          <mxGeometry x="930" y="552" width="280" height="80" as="geometry" />
        </mxCell>
        <mxCell id="zukYgAwYILHTxyN00kDu-44" style="rounded=0;orthogonalLoop=1;jettySize=auto;html=1;exitX=0;exitY=0;exitDx=0;exitDy=0;exitPerimeter=0;strokeWidth=2;dashed=1;endArrow=none;endFill=0;" edge="1" parent="1" source="zukYgAwYILHTxyN00kDu-41">
          <mxGeometry relative="1" as="geometry">
            <mxPoint x="850" y="702" as="targetPoint" />
          </mxGeometry>
        </mxCell>
        <mxCell id="zukYgAwYILHTxyN00kDu-41" value="If User loses&lt;font style=&quot;font-size: 23px;&quot;&gt;&amp;nbsp;his ETH credentials&lt;/font&gt;" style="shape=note2;boundedLbl=1;whiteSpace=wrap;html=1;size=25;verticalAlign=middle;align=center;fontSize=23;" vertex="1" parent="1">
          <mxGeometry x="970" y="742" width="200" height="150" as="geometry" />
        </mxCell>
        <mxCell id="zukYgAwYILHTxyN00kDu-45" value="&amp;lt;&amp;lt;system&amp;gt;&amp;gt;&lt;br&gt;Smart Contract" style="shape=umlActor;verticalLabelPosition=bottom;verticalAlign=top;html=1;align=center;strokeWidth=2;fontSize=23;fontStyle=1;" vertex="1" parent="1">
          <mxGeometry x="1410" y="1360" width="130" height="220" as="geometry" />
        </mxCell>
        <mxCell id="zukYgAwYILHTxyN00kDu-46" value="&lt;font style=&quot;font-size: 22px;&quot;&gt;Performs Transaction&lt;/font&gt;" style="ellipse;whiteSpace=wrap;html=1;strokeWidth=2;" vertex="1" parent="1">
          <mxGeometry x="697" y="1280" width="280" height="80" as="geometry" />
        </mxCell>
        <mxCell id="zukYgAwYILHTxyN00kDu-48" style="rounded=0;orthogonalLoop=1;jettySize=auto;html=1;exitX=1;exitY=1;exitDx=0;exitDy=0;entryX=0;entryY=0.3333333333333333;entryDx=0;entryDy=0;entryPerimeter=0;strokeWidth=2;endArrow=none;endFill=0;" edge="1" parent="1" source="zukYgAwYILHTxyN00kDu-46" target="zukYgAwYILHTxyN00kDu-45">
          <mxGeometry relative="1" as="geometry" />
        </mxCell>
        <mxCell id="zukYgAwYILHTxyN00kDu-51" value="&lt;span style=&quot;font-size: 22px;&quot;&gt;Checks Random&lt;/span&gt;" style="ellipse;whiteSpace=wrap;html=1;strokeWidth=2;" vertex="1" parent="1">
          <mxGeometry x="695" y="1120" width="280" height="80" as="geometry" />
        </mxCell>
        <mxCell id="zukYgAwYILHTxyN00kDu-58" style="edgeStyle=orthogonalEdgeStyle;rounded=0;orthogonalLoop=1;jettySize=auto;html=1;exitX=0.5;exitY=0;exitDx=0;exitDy=0;entryX=0.5;entryY=1;entryDx=0;entryDy=0;strokeWidth=4;" edge="1" parent="1" source="zukYgAwYILHTxyN00kDu-53" target="zukYgAwYILHTxyN00kDu-46">
          <mxGeometry relative="1" as="geometry" />
        </mxCell>
        <mxCell id="zukYgAwYILHTxyN00kDu-61" style="rounded=0;orthogonalLoop=1;jettySize=auto;html=1;exitX=0.5;exitY=1;exitDx=0;exitDy=0;strokeWidth=4;dashed=1;" edge="1" parent="1" source="zukYgAwYILHTxyN00kDu-53" target="zukYgAwYILHTxyN00kDu-55">
          <mxGeometry relative="1" as="geometry" />
        </mxCell>
        <mxCell id="zukYgAwYILHTxyN00kDu-62" value="&amp;lt;&amp;lt;include&amp;gt;&amp;gt;" style="edgeLabel;html=1;align=center;verticalAlign=middle;resizable=0;points=[];fontSize=22;" vertex="1" connectable="0" parent="zukYgAwYILHTxyN00kDu-61">
          <mxGeometry x="0.24" y="7" relative="1" as="geometry">
            <mxPoint x="-5" y="-38" as="offset" />
          </mxGeometry>
        </mxCell>
        <mxCell id="zukYgAwYILHTxyN00kDu-53" value="&lt;font style=&quot;font-size: 22px;&quot;&gt;Checks Trust&lt;/font&gt;" style="ellipse;whiteSpace=wrap;html=1;strokeWidth=2;" vertex="1" parent="1">
          <mxGeometry x="480" y="1480" width="280" height="80" as="geometry" />
        </mxCell>
        <mxCell id="zukYgAwYILHTxyN00kDu-59" style="edgeStyle=orthogonalEdgeStyle;rounded=0;orthogonalLoop=1;jettySize=auto;html=1;exitX=0.5;exitY=0;exitDx=0;exitDy=0;entryX=0.5;entryY=1;entryDx=0;entryDy=0;strokeWidth=4;" edge="1" parent="1" source="zukYgAwYILHTxyN00kDu-54" target="zukYgAwYILHTxyN00kDu-46">
          <mxGeometry relative="1" as="geometry" />
        </mxCell>
        <mxCell id="zukYgAwYILHTxyN00kDu-65" style="rounded=0;orthogonalLoop=1;jettySize=auto;html=1;exitX=0.5;exitY=1;exitDx=0;exitDy=0;entryX=0.5;entryY=0;entryDx=0;entryDy=0;dashed=1;strokeWidth=4;" edge="1" parent="1" source="zukYgAwYILHTxyN00kDu-54" target="zukYgAwYILHTxyN00kDu-63">
          <mxGeometry relative="1" as="geometry" />
        </mxCell>
        <mxCell id="zukYgAwYILHTxyN00kDu-67" value="&amp;lt;&amp;lt;include&amp;gt;&amp;gt;" style="edgeLabel;html=1;align=center;verticalAlign=middle;resizable=0;points=[];fontSize=22;" vertex="1" connectable="0" parent="zukYgAwYILHTxyN00kDu-65">
          <mxGeometry x="-0.1189" y="2" relative="1" as="geometry">
            <mxPoint y="-1" as="offset" />
          </mxGeometry>
        </mxCell>
        <mxCell id="zukYgAwYILHTxyN00kDu-54" value="&lt;font style=&quot;font-size: 22px;&quot;&gt;Removes trust&lt;/font&gt;" style="ellipse;whiteSpace=wrap;html=1;strokeWidth=2;" vertex="1" parent="1">
          <mxGeometry x="920" y="1480" width="280" height="80" as="geometry" />
        </mxCell>
        <mxCell id="zukYgAwYILHTxyN00kDu-55" value="&lt;font style=&quot;font-size: 22px;&quot;&gt;Checks introducers&lt;/font&gt;" style="ellipse;whiteSpace=wrap;html=1;strokeWidth=2;" vertex="1" parent="1">
          <mxGeometry x="460" y="1710" width="280" height="80" as="geometry" />
        </mxCell>
        <mxCell id="zukYgAwYILHTxyN00kDu-57" style="edgeStyle=orthogonalEdgeStyle;rounded=0;orthogonalLoop=1;jettySize=auto;html=1;exitX=0.5;exitY=0;exitDx=0;exitDy=0;entryX=0.5;entryY=1;entryDx=0;entryDy=0;strokeWidth=4;" edge="1" parent="1" source="zukYgAwYILHTxyN00kDu-56" target="zukYgAwYILHTxyN00kDu-46">
          <mxGeometry relative="1" as="geometry" />
        </mxCell>
        <mxCell id="zukYgAwYILHTxyN00kDu-64" style="rounded=0;orthogonalLoop=1;jettySize=auto;html=1;exitX=0.5;exitY=1;exitDx=0;exitDy=0;entryX=0;entryY=0;entryDx=0;entryDy=0;dashed=1;strokeWidth=4;" edge="1" parent="1" source="zukYgAwYILHTxyN00kDu-56" target="zukYgAwYILHTxyN00kDu-63">
          <mxGeometry relative="1" as="geometry" />
        </mxCell>
        <mxCell id="zukYgAwYILHTxyN00kDu-66" value="&amp;lt;&amp;lt;include&amp;gt;&amp;gt;" style="edgeLabel;html=1;align=center;verticalAlign=middle;resizable=0;points=[];fontSize=22;" vertex="1" connectable="0" parent="zukYgAwYILHTxyN00kDu-64">
          <mxGeometry x="0.061" y="3" relative="1" as="geometry">
            <mxPoint y="-1" as="offset" />
          </mxGeometry>
        </mxCell>
        <mxCell id="zukYgAwYILHTxyN00kDu-56" value="&lt;span style=&quot;font-size: 22px;&quot;&gt;Gives Trust&lt;/span&gt;" style="ellipse;whiteSpace=wrap;html=1;strokeWidth=2;" vertex="1" parent="1">
          <mxGeometry x="696" y="1600" width="280" height="80" as="geometry" />
        </mxCell>
        <mxCell id="zukYgAwYILHTxyN00kDu-63" value="&lt;font style=&quot;font-size: 22px;&quot;&gt;Edit signers&lt;/font&gt;" style="ellipse;whiteSpace=wrap;html=1;strokeWidth=2;" vertex="1" parent="1">
          <mxGeometry x="880" y="1800" width="280" height="80" as="geometry" />
        </mxCell>
      </root>
    </mxGraphModel>
  </diagram>
</mxfile>
